<svg width="167" height="100" viewBox="0 0 167 100" fill="none" xmlns="http://www.w3.org/2000/svg">
<g clip-path="url(#clip0)">
<path fill-rule="evenodd" clip-rule="evenodd" d="M33.2973 65.4181C28.587 62.3525 22.9865 67.5058 18.3984 71.2118C18.0512 70.234 18.0952 70.3562 17.8311 69.5544C22.6294 66.1319 28.8315 61.2915 33.2973 65.4181Z" fill="#FF3838"/>
<path fill-rule="evenodd" clip-rule="evenodd" d="M9.09051 68.381L10.5188 67.2809C10.7193 65.3252 8.36171 62.2108 5.03564 62.8121L5.94053 64.1029C6.22403 64.484 6.41948 64.9231 6.51281 65.3888C7.13889 68.6401 8.46932 68.3761 9.09051 68.381Z" fill="#09A89E"/>
<path d="M11.0469 67.4131L23.9256 82.8142L23.3778 83.6845L9.21753 68.8603L11.0469 67.4131Z" fill="#D6579A"/>
<path d="M9.61862 74.6636L21.7196 83.7527L19.6702 87.2388L7.11429 78.4723L3.98877 73.1528L9.61862 74.6636Z" fill="#2AABE3"/>
<path d="M20.8098 85.2977L8.87022 76.7073L7.11426 78.4723" stroke="white" stroke-width="0.71" stroke-miterlimit="22.93"/>
<path fill-rule="evenodd" clip-rule="evenodd" d="M161.938 75.1623C162.711 74.9277 163.831 74.9032 164.246 72.5808C164.667 74.9032 165.777 74.9277 166.55 75.1623C164.824 75.529 164.559 76.4335 164.246 77.7439C163.928 76.4335 163.669 75.529 161.938 75.1623Z" fill="#D6579A"/>
<path d="M83.873 51.4398V54.4027C83.8567 54.5653 83.8567 54.7291 83.873 54.8917V55.2486C83.3252 55.0628 82.748 54.8966 82.1415 54.7254C81.5545 54.5776 80.9602 54.4601 80.3611 54.3734C79.6705 54.2618 78.972 54.2062 78.2725 54.2072H78.2236C78.2236 54.7841 78.1698 55.5957 78.1404 56.6811C78.1111 57.7665 78.0867 59.0671 78.0867 60.5925C78.0867 62.118 78.0866 63.8879 78.1943 65.7507C78.3019 67.6135 78.3557 69.5986 78.522 71.6178L74.5698 71.4222C74.6481 70.8991 74.7019 70.3515 74.7606 69.7795C74.8193 69.2074 74.8437 68.6843 74.8682 68.1318C74.8926 67.5793 74.9269 67.0317 74.9513 66.4841C74.9758 65.9365 75.01 65.4671 75.0394 64.9733C75.0394 63.8488 75.0932 62.7487 75.0932 61.678C75.0932 60.6072 75.0932 59.4778 75.0394 58.3044C75.0394 57.8154 74.9807 57.2825 74.9513 56.7105C74.922 56.1384 74.8975 55.5859 74.8682 54.9797C74.8388 54.3734 74.785 53.7671 74.7606 53.1364C74.7361 52.5057 74.6481 51.9337 74.5698 51.3274L75.9981 51.4105C76.4627 51.4105 77.0693 51.4105 77.7785 51.4692C78.4877 51.5278 79.3975 51.4692 80.4149 51.4692H82.0388C82.6355 51.4643 83.242 51.4643 83.873 51.4398ZM91.2099 71.4858C91.1496 71.2064 91.1039 70.9241 91.073 70.64C91.0192 70.3466 90.9849 70.0533 90.9605 69.7599C90.5838 70.33 90.0819 70.8065 89.4931 71.1533C88.9233 71.4802 88.2766 71.649 87.6197 71.6423C87.2564 71.6408 86.8953 71.5847 86.5485 71.476C86.1644 71.3646 85.8156 71.1558 85.5361 70.8698C85.2246 70.5515 84.9859 70.1695 84.8366 69.7501C84.6195 69.1707 84.5166 68.5547 84.5333 67.9362C84.5172 67.3915 84.6121 66.8492 84.8121 66.3423C84.9778 65.9128 85.2124 65.5131 85.5067 65.1591C85.7767 64.8362 86.0819 64.5443 86.4165 64.2888C86.7596 64.0365 87.1173 63.8047 87.4877 63.5945L88.5051 63.0421C88.7877 62.9112 89.0537 62.7471 89.2974 62.5531C89.6722 62.2535 90.0133 61.9142 90.3148 61.5411C90.6005 61.2069 90.8361 60.833 91.0143 60.4312C90.9907 59.9231 90.9252 59.4178 90.8186 58.9204C90.7476 58.5753 90.6186 58.2446 90.4371 57.9426C90.3185 57.7196 90.1243 57.5463 89.8893 57.4536C89.6518 57.3629 89.4001 57.3149 89.1458 57.3118C88.7768 57.2973 88.412 57.3944 88.0991 57.5905C87.8286 57.7554 87.5927 57.9713 87.4045 58.2261C87.602 58.3529 87.7786 58.5096 87.9279 58.6906C88.048 58.8349 88.1394 59.0009 88.1969 59.1795C88.2655 59.3458 88.3036 59.523 88.3094 59.7027C88.3264 59.9588 88.2884 60.2156 88.1982 60.4559C88.1079 60.6962 87.9674 60.9144 87.786 61.0961C87.4274 61.4234 86.9557 61.5987 86.4703 61.5851C86.2011 61.59 85.935 61.526 85.6975 61.3993C85.4657 61.2523 85.2619 61.0652 85.0958 60.8468C84.9129 60.5967 84.7739 60.3173 84.685 60.0205C84.594 59.6807 84.5463 59.3308 84.5431 58.9791C84.5524 58.5648 84.637 58.1556 84.7926 57.7714C84.9756 57.3296 85.2566 56.9351 85.6143 56.6176C86.0438 56.2274 86.5411 55.9191 87.0817 55.7082C87.7657 55.4508 88.4935 55.3296 89.2241 55.3513C89.9774 55.3307 90.724 55.4988 91.3958 55.8402C91.9691 56.1663 92.4686 56.6074 92.8632 57.1358C93.2538 57.7028 93.5434 58.333 93.7192 58.9986C93.8809 59.7209 93.963 60.4587 93.9637 61.1988V66.8263C93.9637 67.4277 93.9637 67.9509 94.0175 68.5034C94.0713 69.0558 94.0762 69.5448 94.13 70.0093C94.1511 70.4449 94.2067 70.8781 94.2963 71.3049L91.2099 71.4858ZM91.0192 63.6337C90.7152 63.9943 90.3742 64.3221 90.0018 64.6115C89.7523 64.8071 89.4491 65.0026 89.1458 65.2471C88.8389 65.4669 88.5539 65.7158 88.2947 65.9903C88.0254 66.2186 87.7913 66.4855 87.6002 66.7823C87.4244 67.044 87.3308 67.3521 87.3312 67.6673C87.3259 68.0286 87.4299 68.383 87.6295 68.6843C87.7158 68.824 87.8381 68.9381 87.9834 69.0146C88.1288 69.0911 88.292 69.1273 88.4561 69.1194C88.7713 69.1293 89.0803 69.0309 89.3317 68.8407C89.6093 68.6772 89.8479 68.4554 90.0311 68.1904C90.2371 67.9266 90.4111 67.6394 90.5496 67.3348C90.6817 67.0317 90.7942 66.753 90.8773 66.5134L91.0192 63.6337ZM95.5485 76.3457C95.6561 75.0501 95.7441 73.7935 95.8273 72.5517C95.9104 71.3098 95.9594 70.0581 96.0132 68.8456C96.067 67.6331 96.1257 66.401 96.1501 65.1933C96.1746 63.9857 96.1501 62.7487 96.1501 61.5166C96.1501 59.8445 96.1501 58.143 96.067 56.3829H99.1142L99.0311 57.8497C99.359 57.1802 99.8181 56.5833 100.381 56.0944C100.822 55.7028 101.386 55.4794 101.976 55.4637C102.598 55.449 103.212 55.6009 103.756 55.9037C104.323 56.2292 104.783 56.7114 105.082 57.2923C105.478 58.04 105.755 58.845 105.903 59.6782C106.109 60.8366 106.201 62.0124 106.177 63.1887C106.213 64.5197 106.083 65.85 105.791 67.149C105.595 68.0593 105.251 68.9314 104.773 69.7306C104.409 70.3092 103.904 70.7868 103.306 71.1191C102.794 71.4073 102.216 71.5588 101.628 71.5591C101.32 71.5194 101.017 71.4473 100.723 71.344C100.407 71.2288 100.112 71.0637 99.8479 70.8551C99.4796 70.5894 99.1503 70.2734 98.8697 69.9164C98.8697 70.992 98.9235 72.0627 98.943 73.1335C98.9626 74.2042 99.0262 75.3043 99.1093 76.3995L95.5485 76.3457ZM98.8746 67.2273C98.9669 67.4101 99.0766 67.5837 99.2023 67.7455C99.313 67.9466 99.4494 68.1323 99.6082 68.298C99.7518 68.458 99.9163 68.5978 100.097 68.7136C100.261 68.8176 100.451 68.8735 100.645 68.8749C100.943 68.8647 101.227 68.7485 101.447 68.5474C101.751 68.2542 101.988 67.899 102.142 67.506C102.37 66.9191 102.534 66.3093 102.631 65.6871C102.777 64.8001 102.842 63.9017 102.827 63.0029C102.836 62.2598 102.798 61.5168 102.714 60.7783C102.646 60.2565 102.528 59.7424 102.362 59.2431C102.267 58.9065 102.1 58.5945 101.873 58.3288C101.703 58.1617 101.475 58.0656 101.237 58.0599C101.045 58.0599 100.859 58.1293 100.714 58.2555C100.528 58.3936 100.363 58.5584 100.225 58.7444C100.061 58.9636 99.9152 59.1958 99.7892 59.4387C99.6767 59.688 99.5398 59.9276 99.4322 60.1818C99.3246 60.4361 99.212 60.6708 99.1289 60.8761C99.0589 61.0451 99.0049 61.2202 98.9675 61.3993C98.9675 62.3771 98.9137 63.2914 98.9137 64.1813V66.9632L98.8746 67.2273ZM116.693 71.5103V71.4565C116.777 70.5226 116.83 69.6474 116.86 68.8749C116.889 68.1024 116.918 67.4082 116.943 66.8459V63.1643C116.95 62.8374 116.932 62.5105 116.889 62.1864C116.723 62.9296 116.591 63.575 116.478 64.1421C116.366 64.7093 116.199 65.2667 116.116 65.6774C116.033 66.0881 115.93 66.5623 115.872 66.8606C115.759 67.3006 115.676 67.7357 115.593 68.1856C115.51 68.6354 115.461 68.9483 115.407 69.359C115.338 69.7406 115.29 70.1258 115.265 70.5128H112.482C112.326 69.579 112.184 68.7038 112.017 67.8482C111.851 66.9926 111.719 66.1712 111.528 65.3791C111.338 64.5871 111.201 63.8146 111.039 63.0421C110.873 62.3869 110.741 61.7024 110.55 61.0375C110.55 61.6437 110.496 62.2207 110.467 62.7438C110.438 63.267 110.467 63.8146 110.467 64.2546C110.467 65.4622 110.526 66.6161 110.579 67.6771C110.633 68.738 110.746 69.8381 110.858 70.8795H110.804L107.615 70.992C107.669 70.4688 107.728 69.9212 107.747 69.315L107.83 67.506C107.83 66.9046 107.889 66.2983 107.889 65.7214V57.2043C107.907 56.738 107.877 56.2712 107.801 55.8108H109.704C110.244 55.8256 110.785 55.8076 111.323 55.7571C111.515 55.7717 111.708 55.7717 111.9 55.7571H111.949C112.032 56.6665 112.145 57.571 112.257 58.4217C112.37 59.2724 112.502 60.1232 112.668 60.9446C112.834 61.766 112.947 62.5922 113.133 63.3892C113.318 64.1861 113.465 64.9244 113.622 65.692C113.871 64.8413 114.111 63.9955 114.316 63.1398C114.522 62.2842 114.757 61.409 114.952 60.5583C115.148 59.7076 115.304 58.8813 115.476 58.0599C115.647 57.2385 115.715 56.3829 115.798 55.5664H118.215C118.447 55.5641 118.679 55.5444 118.909 55.5077C119.085 55.507 119.26 55.489 119.433 55.4539H119.486V55.5077C119.433 56.246 119.379 56.9745 119.349 57.7323C119.32 58.4902 119.266 59.1991 119.266 59.82C119.266 60.441 119.266 61.0815 119.212 61.6291V64.9C119.212 65.3889 119.266 65.8045 119.266 66.3668C119.266 66.929 119.32 67.4082 119.349 67.99C119.379 68.5718 119.433 69.0852 119.486 69.6621C119.54 70.239 119.599 70.7084 119.658 71.2022V71.256L116.693 71.5103ZM119.692 71.2413C119.607 70.7316 119.551 70.2174 119.526 69.7012C119.472 69.1243 119.413 68.5767 119.389 68.0242C119.364 67.4717 119.33 66.929 119.305 66.4059C119.281 65.8827 119.305 65.3596 119.247 64.9391C119.22 64.5452 119.22 64.1498 119.247 63.7559V59.8445C119.247 59.1893 119.305 58.4559 119.33 57.7568C119.354 57.0576 119.413 56.29 119.472 55.5322C119.33 55.5322 119.168 55.5859 118.948 55.6153C118.728 55.6446 118.537 55.6153 118.254 55.6691C117.905 55.6987 117.555 55.6987 117.207 55.6691C116.999 55.6837 116.789 55.6837 116.581 55.6691H115.862C115.779 56.4904 115.666 57.3216 115.534 58.1675C115.402 59.0133 115.202 59.8445 115.011 60.6952C114.82 61.5459 114.595 62.3967 114.38 63.2719C114.165 64.147 113.891 65.032 113.636 65.9365C113.446 65.1151 113.279 64.3182 113.113 63.4919C112.947 62.6656 112.785 61.8686 112.624 61.0472C112.463 60.2258 112.35 59.38 112.213 58.5244C112.076 57.6688 111.988 56.7691 111.885 55.8597C111.691 55.8531 111.497 55.8712 111.308 55.9135H107.84C107.84 56.3242 107.899 56.7985 107.899 57.307V64.1519C107.899 64.6751 107.899 65.2178 107.84 65.824C107.782 66.4303 107.84 67.0024 107.786 67.6086L107.703 69.4176C107.689 69.9786 107.645 70.5384 107.571 71.0947L110.731 70.9822C110.618 69.9408 110.535 68.8945 110.482 67.7749C110.428 66.6552 110.369 65.5502 110.369 64.3524V62.8416C110.369 62.2647 110.423 61.6291 110.452 60.9201C110.648 61.6193 110.804 62.3869 110.976 63.1398C111.147 63.8928 111.298 64.6848 111.465 65.4769C111.631 66.269 111.797 67.1001 111.929 67.9215C112.061 68.7429 112.238 69.6523 112.418 70.5862H115.167C115.193 70.1992 115.24 69.8139 115.309 69.4323C115.363 69.0216 115.417 68.6109 115.5 68.254C115.583 67.8971 115.661 67.3739 115.774 66.9339C115.828 66.6357 115.911 66.2396 116.023 65.7507C116.136 65.2618 116.214 64.8217 116.351 64.1861C116.488 63.5505 116.649 62.8465 116.84 61.9664C116.829 62.3876 116.847 62.8091 116.894 63.2279C116.925 63.5531 116.925 63.8805 116.894 64.2057V66.9241C116.904 67.6031 116.876 68.2821 116.811 68.9581C116.728 69.7501 116.728 70.6057 116.645 71.5396L119.692 71.2413ZM116.967 61.6046V61.854C116.967 62.3429 117.026 62.734 117.026 63.1154V64.9586C117.026 65.5062 117.026 66.1076 116.967 66.797C116.977 67.4744 116.949 68.1517 116.884 68.8261C116.801 69.6181 116.801 70.4444 116.747 71.3782L119.604 71.1631C119.55 70.6742 119.496 70.1853 119.437 69.6523C119.379 69.1194 119.354 68.5278 119.325 67.9753C119.296 67.4228 119.271 66.8801 119.242 66.357C119.212 65.8338 119.193 65.3107 119.193 64.8902V59.8396C119.193 59.1844 119.242 58.451 119.271 57.7519C119.301 57.0527 119.354 56.2851 119.413 55.5566L118.924 55.6397C118.691 55.6332 118.458 55.6512 118.229 55.6935C117.883 55.7232 117.534 55.7232 117.187 55.6935C116.979 55.7082 116.77 55.7082 116.561 55.6935C116.328 55.7082 116.095 55.7082 115.862 55.6935C115.779 56.5149 115.666 57.3363 115.534 58.1381C115.402 58.94 115.231 59.8151 115.016 60.6659C114.801 61.5166 114.624 62.3673 114.38 63.2425C114.135 64.1177 113.915 65.0027 113.636 65.9072C113.451 65.1151 113.255 64.2888 113.089 63.4625C112.922 62.6362 112.761 61.8393 112.599 61.0179C112.438 60.1965 112.33 59.3507 112.218 58.495C112.105 57.6394 111.998 56.7691 111.89 55.8842H107.865C107.865 56.2655 107.919 56.7154 107.919 57.2092C107.919 57.703 107.919 58.2799 107.972 58.8275C108.002 59.3486 108.002 59.871 107.972 60.3921V65.7116C107.972 66.3179 107.919 66.8948 107.919 67.5011C107.919 68.1073 107.865 68.7136 107.806 69.3101C107.747 69.9066 107.733 70.4346 107.674 70.9284L110.746 70.7964C110.633 69.7501 110.55 68.7136 110.491 67.6135C110.433 66.5134 110.384 65.3889 110.384 64.191V62.6802C110.384 62.1033 110.438 61.4433 110.467 60.7245V60.4996L110.521 60.7245C110.716 61.4628 110.878 62.2353 111.044 62.9687C111.21 63.7021 111.396 64.5137 111.533 65.3058C111.67 66.0978 111.861 66.8997 112.022 67.7798C112.184 68.6598 112.301 69.4812 112.458 70.4151H115.123C115.182 70.0581 115.207 69.7159 115.29 69.2856C115.373 68.8554 115.402 68.4642 115.485 68.1122C115.568 67.7602 115.647 67.2273 115.759 66.7921C115.813 66.489 115.896 66.093 116.009 65.6089C116.121 65.1249 116.195 64.6311 116.336 64.0444C116.478 63.4576 116.635 62.6509 116.826 61.8246L116.967 61.6046ZM126.231 71.7009C125.433 71.7202 124.645 71.5207 123.952 71.124C123.296 70.7206 122.749 70.1634 122.358 69.5008C121.923 68.7413 121.618 67.9153 121.453 67.0561C121.248 66.034 121.148 64.9938 121.154 63.9515C121.139 62.7508 121.257 61.5521 121.506 60.3774C121.696 59.402 122.039 58.463 122.524 57.5954C122.931 56.8582 123.506 56.2268 124.202 55.7522C125.207 55.1342 126.417 54.9401 127.566 55.2123C128.715 55.4845 129.709 56.2008 130.33 57.2043C130.768 57.9304 131.072 58.7283 131.23 59.5609C131.559 61.1793 131.625 62.8401 131.426 64.4795C131.377 65.1577 131.275 65.8312 131.123 66.4939C130.967 67.1621 130.756 67.8163 130.492 68.4496C130.246 69.0429 129.917 69.5978 129.513 70.0973C129.126 70.5666 128.653 70.9582 128.119 71.2511C127.533 71.5639 126.876 71.7205 126.212 71.7058L126.231 71.7009ZM128.32 61.6486C128.324 61.0348 128.296 60.4212 128.237 59.8103C128.189 59.3378 128.089 58.8722 127.938 58.4217C127.821 58.107 127.643 57.8181 127.415 57.571C127.205 57.3756 126.929 57.2672 126.642 57.2678C126.469 57.2796 126.301 57.3296 126.15 57.4141C125.998 57.4987 125.868 57.6157 125.767 57.7568C125.434 58.1978 125.182 58.6945 125.023 59.2235C124.78 59.9904 124.617 60.78 124.534 61.5802C124.391 62.6185 124.325 63.6661 124.339 64.7142C124.342 65.3822 124.38 66.0497 124.451 66.7139C124.515 67.2266 124.627 67.7323 124.784 68.2247C124.881 68.5864 125.06 68.9209 125.307 69.2025C125.401 69.3038 125.514 69.3851 125.64 69.4414C125.766 69.4977 125.903 69.5279 126.041 69.5301C126.188 69.5327 126.334 69.5019 126.468 69.4401C126.602 69.3783 126.72 69.287 126.813 69.1732C127.068 68.8879 127.264 68.5557 127.391 68.1953C127.586 67.7492 127.733 67.2838 127.831 66.8068C127.954 66.2534 128.045 65.6935 128.105 65.1298C128.188 64.5528 128.242 63.9564 128.271 63.3501C128.3 62.7438 128.325 62.1718 128.325 61.6242L128.32 61.6486ZM141.712 55.7375C141.576 55.7522 141.438 55.7522 141.301 55.7375H139.242C139.132 55.7522 139.02 55.7522 138.91 55.7375C138.88 55.74 138.851 55.7365 138.823 55.7272C138.796 55.718 138.77 55.7032 138.748 55.6837C138.812 56.0749 138.856 56.4709 138.88 56.8669C138.905 57.263 138.963 57.879 138.993 58.4853C139.022 59.0915 138.993 59.7516 139.047 60.441V61.8344L138.142 61.9175C137.653 61.9664 137.129 61.9958 136.523 62.0202H136.244V60.5534C136.244 59.7027 136.327 58.8764 136.356 58.055C136.386 57.2336 136.464 56.4611 136.523 55.7766L132.898 55.8304C132.981 56.9011 133.055 57.9181 133.113 58.9057C133.172 59.8934 133.221 60.8614 133.25 61.8393L133.334 64.7191V71.2267L136.117 71.1142V64.856L138.973 64.9391C138.973 65.6334 138.973 66.3668 138.915 67.0268C138.856 67.6869 138.831 68.4545 138.802 69.1145C138.773 69.7746 138.729 70.4297 138.67 71.0067C139.104 70.9278 139.545 70.8901 139.986 70.8942H140.905L141.761 70.9773V61.3846C141.761 59.3507 141.815 57.4047 141.864 55.5908C141.818 55.6511 141.762 55.7025 141.698 55.7424L141.712 55.7375ZM150.336 71.0409C150.327 70.6913 150.345 70.3414 150.389 69.9946C150.443 69.6474 150.443 69.3639 150.473 69.0656C150.235 69.5395 149.902 69.959 149.494 70.2977C149.204 70.5538 148.893 70.786 148.565 70.992C148.231 71.1329 147.878 71.2267 147.518 71.2707C146.905 71.2823 146.303 71.1122 145.787 70.7818C145.269 70.4297 144.851 69.9496 144.574 69.3883C144.216 68.6992 143.969 67.9585 143.84 67.193C143.687 66.249 143.612 65.294 143.615 64.3377C143.615 62.8709 143.669 61.4335 143.752 60.0254C143.846 58.6653 144.01 57.3109 144.241 55.9673L147.665 56.3487C147.44 57.3901 147.274 58.3533 147.176 59.1795C147.078 60.0058 146.99 60.7441 146.936 61.321C146.882 61.898 146.824 62.6069 146.824 63.1301C146.805 63.8726 146.833 64.6156 146.907 65.3547C146.947 65.8858 147.047 66.4106 147.205 66.9192C147.313 67.2697 147.503 67.5897 147.758 67.8531C148.025 68.0621 148.358 68.1695 148.697 68.1562C149.008 68.0693 149.278 67.8754 149.46 67.6086C149.582 67.4545 149.692 67.291 149.788 67.1197C149.9 66.8997 150.008 66.6308 150.15 66.3227C150.292 66.0147 150.365 65.6236 150.477 65.2471C150.606 64.779 150.707 64.304 150.781 63.8243V55.8842L153.828 55.938C153.774 56.6322 153.745 57.2581 153.72 57.8301C153.696 58.4021 153.662 58.9302 153.662 59.4484V64.0492C153.662 64.6751 153.662 65.3107 153.72 66.0049C153.779 66.6992 153.774 67.4717 153.804 68.2833C153.833 69.095 153.887 70.0679 153.916 71.1387L150.336 71.0409ZM165.44 71.0409V70.8942C165.44 70.6546 165.357 70.3466 165.327 70.019C165.298 69.6915 165.283 69.3248 165.254 68.9189C165.225 68.5131 165.254 68.1562 165.195 67.7406C165.168 67.3385 165.168 66.9351 165.195 66.533V65.3547V58.3288C165.195 57.7519 165.254 57.2581 165.254 56.8229C165.254 56.3878 165.303 55.9722 165.303 55.7522V55.6153H165.195C164.809 55.5322 164.369 55.4784 163.933 55.4246L162.667 55.3415C162.177 55.3415 161.762 55.2828 161.273 55.2828H160.959C160.388 55.2792 159.817 55.3349 159.257 55.449C158.639 55.5952 158.054 55.8591 157.536 56.2264C157.047 56.5974 156.646 57.0715 156.362 57.615C156.045 58.2464 155.877 58.9424 155.873 59.6489C155.98 60.1795 156.175 60.6885 156.45 61.1548C156.552 61.3739 156.683 61.5779 156.841 61.7611C156.99 61.9735 157.164 62.1672 157.36 62.338C157.57 62.5306 157.806 62.6949 158.059 62.8269C158.225 62.9296 158.399 63.0211 158.577 63.1007C158.282 63.2216 158.007 63.3864 157.761 63.5897C157.468 63.8211 157.23 64.1129 157.061 64.4453C156.888 64.7516 156.76 65.0808 156.68 65.4231C156.595 65.7848 156.539 66.1527 156.513 66.5232C156.513 66.9046 156.455 67.2859 156.455 67.6673C156.433 68.0736 156.389 68.4785 156.323 68.8798C156.279 69.1686 156.205 69.4521 156.102 69.7257C156.033 69.9667 155.941 70.2007 155.829 70.4248C155.736 70.639 155.605 70.8344 155.442 71.0018L155.168 71.2511L158.709 71.1387V71.0849C158.873 70.861 158.994 70.6092 159.067 70.3417C159.15 70.0679 159.204 69.8186 159.262 69.5741C159.292 69.3733 159.31 69.1708 159.316 68.9678V67.9607C159.327 67.6322 159.365 67.3052 159.428 66.9828C159.498 66.6517 159.588 66.3252 159.698 66.0049C159.816 65.6965 159.981 65.408 160.187 65.1493C160.371 64.9018 160.609 64.6981 160.881 64.5528C161.181 64.3901 161.519 64.3139 161.859 64.3328H162.104V71.0311L165.44 71.0409ZM162.309 62.1718H161.732C161.437 62.1663 161.144 62.1286 160.857 62.0593C160.623 61.9923 160.401 61.8918 160.196 61.7611C160.018 61.6631 159.853 61.5414 159.707 61.3993C159.576 61.252 159.466 61.0875 159.38 60.9103C159.136 60.552 158.984 60.1387 158.939 59.7076C158.939 59.2974 159.032 58.8926 159.213 58.5244C159.303 58.3717 159.415 58.2332 159.546 58.1137C159.666 57.9467 159.826 57.8123 160.011 57.7225C160.216 57.6096 160.437 57.5272 160.666 57.4781C160.972 57.3957 161.288 57.3595 161.605 57.3705C161.862 57.371 162.117 57.3989 162.368 57.4536L162.309 62.1718Z" fill="black"/>
<path d="M72.6573 77.4849C72.6035 78.0081 72.5742 78.5557 72.5204 79.1082C72.4666 79.6607 72.4323 80.2327 72.4079 80.7852C72.3834 81.3377 72.3492 81.9097 72.3247 82.4329C72.3003 82.956 72.2758 83.5036 72.2758 83.9681C72.2171 85.1171 72.1927 86.2416 72.1633 87.3417C72.134 88.4418 72.0801 89.4294 72.0801 90.4708C72.1003 91.463 72.0628 92.4556 71.9677 93.4435C71.9193 94.3106 71.8098 95.1733 71.6399 96.025C71.4786 96.764 71.1889 97.4689 70.784 98.1078C70.3784 98.6992 69.8299 99.1786 69.1894 99.5013C68.377 99.8529 67.4966 100.02 66.6117 99.9902C65.9648 100.014 65.3199 99.9028 64.7188 99.6626C64.3031 99.4596 63.9374 99.1675 63.6476 98.807C63.4095 98.5003 63.2425 98.1446 63.1585 97.7656C63.0959 97.443 63.0583 97.1161 63.046 96.7877C63.0473 96.5004 63.0935 96.215 63.1829 95.9419C63.28 95.6876 63.4189 95.4513 63.5938 95.2427C63.762 95.0417 63.9681 94.8756 64.2003 94.7538C64.4632 94.6186 64.7558 94.5514 65.0514 94.5582C65.3553 94.5614 65.6552 94.628 65.9318 94.7538C66.1684 94.8776 66.3805 95.0432 66.5579 95.2427C66.7566 95.4333 66.9017 95.6727 66.9786 95.937C67.0708 96.172 67.1157 96.4229 67.1106 96.6753C67.0992 96.8269 67.0628 96.9755 67.003 97.1153C66.9513 97.2643 66.8771 97.4044 66.7829 97.5309C66.6551 97.7177 66.4983 97.8827 66.3182 98.0198C66.5014 98.0942 66.6977 98.1308 66.8954 98.1274C67.1579 98.1212 67.4149 98.0507 67.6438 97.922C67.9208 97.7517 68.1591 97.5252 68.3432 97.2571C68.5697 96.9094 68.7444 96.5306 68.8617 96.1326C69.0156 95.6148 69.0995 95.0787 69.1111 94.5387L69.1601 90.8326C68.8671 91.3389 68.5104 91.8055 68.0987 92.2212C67.8102 92.5028 67.4803 92.7386 67.1204 92.9203C66.8221 93.1004 66.4884 93.2138 66.1421 93.2528C65.6546 93.243 65.1772 93.1119 64.753 92.8714C64.2272 92.5313 63.7924 92.0681 63.4862 91.522C63.048 90.7231 62.7331 89.8627 62.552 88.9698C62.2882 87.6602 62.1701 86.3255 62.1998 84.99C62.1883 84.0592 62.2504 83.129 62.3856 82.208C62.4896 81.4995 62.6532 80.8011 62.8748 80.1203C63.0583 79.583 63.3168 79.0744 63.6427 78.6095C63.9184 78.2513 64.2316 77.9234 64.5769 77.6316C64.8921 77.4007 65.2445 77.2254 65.6188 77.1134C65.9756 77.0046 66.3463 76.9486 66.7193 76.9471C67.0121 76.9711 67.3001 77.0352 67.5753 77.1378C67.8816 77.2538 68.175 77.4013 68.4508 77.5778C68.8151 77.8353 69.144 78.1394 69.4291 78.4824L69.5122 77.1965L72.6573 77.4849ZM69.3313 80.9074C69.1556 80.5655 68.9204 80.2575 68.6367 79.998C68.5188 79.8749 68.3766 79.7774 68.2192 79.7118C68.0618 79.6462 67.8926 79.6138 67.722 79.6167C67.4409 79.6174 67.1677 79.7101 66.9443 79.8807C66.6366 80.1153 66.3969 80.4275 66.2498 80.7852C66.0161 81.3296 65.8518 81.9013 65.7606 82.4867C65.6101 83.3649 65.5445 84.2556 65.565 85.1464C65.5592 85.9731 65.605 86.7994 65.7019 87.6204C65.7739 88.1515 65.8934 88.6752 66.059 89.1849C66.1596 89.4808 66.3308 89.7476 66.5579 89.9623C66.7293 90.1225 66.9542 90.2132 67.1889 90.2166C67.4726 90.2254 67.749 90.1257 67.9617 89.9379C68.1926 89.7648 68.3801 89.5406 68.5095 89.2827C68.6799 89.0375 68.8103 88.7669 68.8959 88.4809C69.0035 88.212 69.0867 87.992 69.165 87.7866C69.165 86.6132 69.165 85.4593 69.2188 84.3104C69.2726 83.1614 69.2823 82.0124 69.3117 80.8879L69.3313 80.9074ZM83.9415 89.6396C83.9453 90.1499 83.8244 90.6534 83.5893 91.1064C83.3473 91.5703 83.0147 91.981 82.6111 92.3141C82.1754 92.6739 81.6783 92.9522 81.1437 93.1355C80.5809 93.3304 79.9881 93.4247 79.3926 93.4142C78.9553 93.4128 78.5199 93.3569 78.0964 93.2479C77.6652 93.1259 77.2582 92.9307 76.8932 92.671C76.464 92.3738 76.083 92.0127 75.7633 91.6002C75.3799 91.1188 75.0731 90.5812 74.8535 90.0063C74.5794 89.2769 74.3795 88.5218 74.2568 87.7524C74.1013 86.7824 74.026 85.8012 74.0318 84.8188C74.0259 83.8867 74.1012 82.9559 74.2568 82.0368C74.3785 81.3212 74.5786 80.6211 74.8535 79.9491C75.0789 79.4026 75.3856 78.8933 75.7633 78.4384C76.0814 78.0704 76.4427 77.7421 76.8394 77.4605C77.2084 77.2202 77.6151 77.0434 78.0426 76.9374C78.4445 76.8276 78.8586 76.7684 79.2752 76.7613C79.8544 76.7559 80.4302 76.8502 80.9774 77.04C81.4955 77.225 81.97 77.5146 82.3714 77.8908C82.7953 78.2764 83.1292 78.7504 83.3496 79.2793C83.5955 79.8752 83.7074 80.5178 83.6774 81.1617C83.6678 81.8316 83.5369 82.4942 83.291 83.1174C83.0028 83.8002 82.6046 84.4311 82.1122 84.9851C81.5446 85.6008 80.8963 86.1369 80.185 86.579C79.3623 87.0724 78.475 87.4492 77.5486 87.6986C77.5971 88.2089 77.6804 88.7153 77.798 89.2143C77.8679 89.6233 77.9964 90.0202 78.1796 90.3926C78.3006 90.6816 78.4903 90.9366 78.7323 91.1358C78.8238 91.2253 78.9325 91.2954 79.0519 91.3416C79.1713 91.3878 79.2989 91.4093 79.4268 91.4047C79.6059 91.4003 79.7828 91.3656 79.9502 91.302C80.1025 91.254 80.2486 91.1884 80.3855 91.1064C80.5377 90.992 80.6602 90.8428 80.7426 90.6713C80.5403 90.5741 80.3617 90.4339 80.2192 90.2606C80.1045 90.1074 80.0046 89.9437 79.9209 89.7717C79.8264 89.5122 79.7893 89.2354 79.8121 88.9602C79.8349 88.6851 79.9171 88.4181 80.0529 88.1778C80.2049 87.9232 80.4122 87.706 80.6594 87.5422C80.8692 87.3908 81.1045 87.2782 81.354 87.2097C81.5437 87.1665 81.7368 87.1404 81.9312 87.1315C82.1202 87.1351 82.3073 87.1715 82.4839 87.239C82.7282 87.3017 82.9523 87.4263 83.1344 87.6008C83.3595 87.8068 83.5379 88.0586 83.6578 88.3391C83.8191 88.7401 83.9021 89.1683 83.9024 89.6005L83.9415 89.6396ZM80.6154 81.2057C80.6153 80.8946 80.5908 80.584 80.5421 80.2767C80.4915 80.0192 80.4077 79.7694 80.2926 79.5335C80.1925 79.3331 80.0527 79.1551 79.8817 79.0104C79.7194 78.8785 79.5134 78.8122 79.3046 78.8246C79.1248 78.8237 78.9477 78.868 78.7896 78.9534C78.6314 79.0388 78.4974 79.1627 78.3997 79.3135C78.1367 79.7234 77.9495 80.1772 77.847 80.6532C77.6897 81.2836 77.5882 81.9265 77.5437 82.5747C77.485 83.2689 77.4605 84.0414 77.4605 84.8286V85.8065C77.9132 85.571 78.3381 85.2856 78.7274 84.9557C79.0997 84.6226 79.4388 84.2542 79.7399 83.8556C80.0116 83.4625 80.2334 83.0371 80.4002 82.5893C80.5317 82.1367 80.5959 81.6672 80.591 81.1959L80.6154 81.2057ZM94.1007 85.5229V86.9114C94.1097 87.2787 94.095 87.6462 94.0566 88.0115C94.0077 88.3391 94.0566 88.6422 93.9979 88.916C93.9393 89.1898 93.9979 89.5223 93.9441 89.845C93.8903 90.1677 93.8854 90.5442 93.8316 90.9451C93.7778 91.346 93.7778 91.83 93.7191 92.3776H90.7012C90.8382 90.9451 90.9164 89.5467 90.9702 88.2071C91.0241 86.8674 91.0534 85.5669 91.0534 84.2566C91.0957 83.3373 90.9866 82.4172 90.7306 81.5333C90.6728 81.2971 90.5391 81.0865 90.35 80.9337C90.1609 80.7809 89.9269 80.6944 89.6838 80.6874C89.4786 80.7509 89.2966 80.8733 89.1605 81.0394C88.9587 81.2612 88.7936 81.5137 88.6714 81.7875C88.4713 82.2293 88.333 82.6965 88.2605 83.176V92.8177L85.2132 92.759C85.267 91.7176 85.3257 90.8033 85.3795 90.0161C85.4333 89.2289 85.4627 88.4467 85.492 87.7866C85.5214 87.1266 85.5458 86.447 85.5458 85.8309V81.2008C85.5458 80.6776 85.5458 80.1251 85.492 79.5238C85.4382 78.9224 85.492 78.2819 85.4382 77.5681L88.4855 77.6267L88.4023 78.8833C88.6069 78.4467 88.8867 78.0495 89.229 77.7099C89.4581 77.4595 89.7317 77.2539 90.036 77.1036C90.2333 76.9924 90.4485 76.9163 90.6719 76.8787C90.7795 76.8787 90.8871 76.8787 90.9947 76.8787C91.2567 76.8745 91.5176 76.9125 91.7675 76.9911C92.0283 77.0743 92.2673 77.2146 92.467 77.4018C92.7121 77.6326 92.9156 77.9039 93.0686 78.2037C93.2805 78.6479 93.4444 79.1133 93.5577 79.5922C93.7428 79.0104 94.0533 78.4763 94.4675 78.0277C94.762 77.7006 95.1154 77.4319 95.5093 77.2356C95.7944 77.0896 96.0993 76.9858 96.4142 76.9276H96.9034C97.4413 76.9088 97.9661 77.0959 98.3707 77.4507C98.8158 77.8916 99.1378 78.441 99.305 79.0446C99.5824 79.9164 99.7468 80.8201 99.7941 81.7337C99.9115 83.0049 99.9653 84.281 99.9604 85.5522C99.9604 86.0411 99.9604 86.5985 99.9017 87.2243C99.843 87.8502 99.7941 88.52 99.7158 89.1801C99.6376 89.8401 99.5789 90.5246 99.4908 91.1846C99.4028 91.8447 99.3245 92.4216 99.2707 92.9448L96.2528 92.8323C96.4191 91.8545 96.5267 90.9646 96.6148 90.1139C96.7028 89.2632 96.7713 88.4662 96.8006 87.8062C96.8544 87.0386 96.8838 86.2954 96.8838 85.6353C96.8838 84.7846 96.8838 84.0463 96.83 83.445C96.8098 82.9257 96.7377 82.4098 96.6148 81.9048C96.5412 81.5783 96.3864 81.2756 96.1648 81.0248C95.9786 80.8453 95.7288 80.7469 95.4702 80.751C95.2683 80.81 95.0815 80.9117 94.9224 81.0492C94.7252 81.218 94.561 81.4219 94.4382 81.6506C94.2439 81.967 94.0957 82.3094 93.9979 82.6676C94.0897 83.6115 94.124 84.5601 94.1007 85.5082V85.5229ZM111.602 81.1226C111.626 81.6238 111.541 82.1243 111.352 82.5893C111.229 82.907 111.031 83.1904 110.775 83.4156C110.572 83.5828 110.335 83.7045 110.08 83.7725C109.892 83.8221 109.698 83.8499 109.503 83.8556C109.316 83.8499 109.131 83.822 108.951 83.7725C108.723 83.7276 108.508 83.6343 108.32 83.4987C108.117 83.3223 107.951 83.1081 107.83 82.868C107.674 82.5332 107.597 82.1668 107.605 81.7973C107.625 81.5595 107.673 81.3248 107.747 81.0981C107.839 80.8886 107.949 80.6874 108.075 80.4967C108.223 80.2702 108.432 80.0891 108.677 79.9736C108.574 79.6841 108.406 79.4216 108.188 79.206C107.899 78.8739 107.499 78.6597 107.063 78.6046C106.887 78.6138 106.716 78.66 106.56 78.74C106.404 78.8201 106.267 78.9322 106.158 79.0691C105.859 79.4454 105.635 79.8752 105.497 80.3354C105.279 80.9691 105.131 81.625 105.057 82.2911C104.941 83.1367 104.885 83.9897 104.891 84.8433C104.884 85.7051 104.922 86.5668 105.003 87.4248C105.043 88.1302 105.155 88.8297 105.336 89.5125C105.437 90.0125 105.642 90.4856 105.938 90.9011C106.043 91.0637 106.188 91.197 106.359 91.2884C106.53 91.3799 106.722 91.4266 106.916 91.4242C107.131 91.4201 107.343 91.3753 107.542 91.2922C107.746 91.1908 107.939 91.0696 108.119 90.9304C108.337 90.7332 108.515 90.4958 108.642 90.2312C108.375 90.1 108.138 89.9133 107.948 89.6836C107.796 89.4821 107.674 89.2598 107.586 89.0236C107.498 88.7856 107.454 88.534 107.454 88.2804C107.439 87.9159 107.523 87.5542 107.698 87.2341C107.856 86.988 108.06 86.7753 108.3 86.6083C108.511 86.4559 108.748 86.3433 108.999 86.2758C109.188 86.226 109.382 86.1981 109.577 86.1927C109.76 86.1984 109.943 86.2264 110.12 86.2758C110.378 86.3511 110.616 86.4849 110.814 86.667C111.045 86.8661 111.224 87.1176 111.338 87.4004C111.508 87.81 111.583 88.2531 111.558 88.696C111.557 89.2592 111.426 89.8146 111.176 90.3192C110.936 90.8912 110.589 91.4122 110.154 91.8545C109.719 92.3207 109.208 92.7092 108.642 93.0035C108.096 93.2984 107.483 93.4513 106.862 93.4484C106.425 93.4443 105.99 93.3885 105.566 93.2821C105.135 93.1592 104.728 92.9641 104.363 92.7052C103.933 92.409 103.553 92.0459 103.238 91.6296C102.852 91.1506 102.543 90.6145 102.323 90.0406C102.049 89.3112 101.849 88.556 101.726 87.7866C101.576 86.816 101.5 85.8352 101.501 84.8531C101.49 83.879 101.576 82.9062 101.756 81.9488C101.883 81.2108 102.101 80.4915 102.406 79.8073C102.659 79.2599 102.988 78.7512 103.384 78.2966C103.738 77.9358 104.136 77.6205 104.568 77.3578C104.972 77.1322 105.407 76.9674 105.859 76.8689C106.273 76.7738 106.697 76.7294 107.121 76.7369C107.723 76.7377 108.32 76.8487 108.882 77.0645C109.421 77.2887 109.918 77.6047 110.349 77.9983C110.753 78.4015 111.084 78.8712 111.328 79.3869C111.546 79.9299 111.646 80.5133 111.621 81.0981L111.602 81.1226ZM121.736 85.5229V86.9114C121.748 87.2791 121.729 87.6472 121.678 88.0115C121.624 88.3391 121.678 88.6422 121.624 88.916C121.57 89.1898 121.624 89.5223 121.57 89.845C121.516 90.1677 121.511 90.5442 121.458 90.9451C121.404 91.346 121.409 91.83 121.35 92.3776H118.327C118.464 90.9451 118.547 89.5467 118.606 88.2071C118.665 86.8674 118.689 85.5669 118.689 84.2566C118.731 83.3363 118.617 82.4155 118.352 81.5333C118.354 81.3492 118.296 81.1694 118.188 81.0205C118.08 80.8716 117.927 80.7615 117.751 80.7066C117.575 80.6517 117.386 80.6549 117.213 80.7158C117.039 80.7766 116.889 80.8918 116.786 81.0443C116.596 81.2698 116.439 81.5218 116.322 81.7924C116.126 82.2358 115.988 82.7025 115.911 83.1809V92.8226L112.864 92.7639C112.917 91.7225 112.976 90.8082 113.03 90.021C113.084 89.2338 113.108 88.4516 113.133 87.7915C113.157 87.1315 113.191 86.4518 113.191 85.8358V81.2057C113.2 80.646 113.18 80.0863 113.133 79.5287C113.079 78.9224 113.133 78.2868 113.079 77.573L116.136 77.6316L116.048 78.8882C116.252 78.4528 116.53 78.0559 116.87 77.7147C117.099 77.4667 117.37 77.2614 117.672 77.1085C117.866 76.9977 118.078 76.9216 118.298 76.8836C118.667 76.8295 119.043 76.8596 119.398 76.9716C119.658 77.0511 119.896 77.1901 120.093 77.3774C120.336 77.6115 120.54 77.882 120.699 78.1792C120.896 78.6288 121.051 79.0952 121.164 79.5727C121.348 78.9915 121.657 78.4575 122.069 78.0081C122.366 77.6821 122.718 77.4122 123.111 77.2111C123.395 77.0652 123.701 76.9631 124.016 76.908H124.505C125.043 76.8838 125.569 77.0697 125.972 77.4263C126.415 77.8692 126.736 78.4179 126.906 79.0202C127.184 79.8937 127.348 80.799 127.396 81.7142C127.513 82.9805 127.572 84.2566 127.562 85.5327C127.562 86.0216 127.562 86.5741 127.508 87.1999C127.454 87.8257 127.396 88.4956 127.312 89.1849C127.229 89.8743 127.175 90.5246 127.097 91.1846C127.019 91.8447 126.931 92.4265 126.872 92.9448L123.854 92.8372C124.021 91.8594 124.123 90.9646 124.206 90.1139C124.29 89.2632 124.378 88.4662 124.402 87.8062C124.461 87.0386 124.485 86.2954 124.485 85.6353C124.485 84.7895 124.485 84.0512 124.431 83.445C124.416 82.9263 124.34 82.4112 124.206 81.9097C124.137 81.5832 123.988 81.279 123.771 81.0248C123.582 80.8497 123.334 80.7519 123.077 80.751C122.873 80.8115 122.684 80.9149 122.524 81.0541C122.333 81.2209 122.168 81.4153 122.035 81.631C121.845 81.9482 121.697 82.2883 121.595 82.6431C121.678 83.4498 121.707 84.413 121.707 85.5131L121.736 85.5229ZM138.46 87.6986C138.454 87.4876 138.426 87.2778 138.376 87.0728C138.336 86.7824 138.271 86.4962 138.181 86.2172C138.065 85.8974 137.908 85.5935 137.716 85.3127C137.506 84.9993 137.247 84.7219 136.948 84.4913C136.712 84.3143 136.452 84.1726 136.175 84.0708C136.332 84.0211 136.48 83.9486 136.616 83.8556C136.86 83.7391 137.084 83.5821 137.276 83.3912C137.457 83.2477 137.621 83.0836 137.765 82.9022C137.878 82.7268 137.98 82.5439 138.068 82.3547C138.269 81.9496 138.39 81.5097 138.425 81.059C138.452 80.3939 138.282 79.7359 137.936 79.1669C137.595 78.6498 137.131 78.2249 136.586 77.9299C135.973 77.614 135.312 77.3993 134.63 77.2943C133.849 77.1617 133.059 77.0995 132.267 77.1085H130.311C130.091 77.0974 129.87 77.1154 129.655 77.1623H129.548V77.2943C129.542 77.6 129.56 77.9057 129.602 78.2086C129.628 78.5617 129.628 78.9164 129.602 79.2695V81.6506C129.602 82.5551 129.602 83.4841 129.655 84.4717V87.7133C129.655 88.2364 129.655 88.7596 129.602 89.3072L129.518 90.8717C129.518 91.3607 129.465 91.8496 129.435 92.2652V92.407H129.572C130.061 92.4607 130.55 92.5439 131.04 92.5732C131.529 92.6025 132.111 92.627 132.693 92.627C133.051 92.6236 133.409 92.5958 133.764 92.5439C134.174 92.5123 134.578 92.4285 134.967 92.2945C135.396 92.1611 135.81 91.9859 136.205 91.7714C137.074 91.3144 137.747 90.5566 138.098 89.6396C138.337 89.0723 138.47 88.4656 138.489 87.8502V87.7671L138.44 87.6986H138.46ZM134.478 82.6284C134.268 82.7941 134.032 82.923 133.779 83.0098C133.452 83.1305 133.105 83.187 132.756 83.176H132.654L132.541 79.0886C132.743 79.0739 132.946 79.0739 133.148 79.0886C133.382 79.0843 133.616 79.1123 133.842 79.1717C134.012 79.2143 134.176 79.2766 134.331 79.3575C134.472 79.4445 134.595 79.5573 134.693 79.69C134.791 79.786 134.874 79.8964 134.938 80.0176C135.102 80.3188 135.198 80.6528 135.217 80.9954V81.2155C135.148 81.5409 135.034 81.8552 134.879 82.1493C134.784 82.3378 134.647 82.5018 134.478 82.6284ZM132.668 85.1269H133.05C133.288 85.1254 133.524 85.172 133.744 85.2638C133.949 85.3369 134.137 85.4499 134.297 85.5962C134.456 85.7399 134.594 85.9043 134.708 86.0852C134.808 86.2584 134.888 86.442 134.948 86.6328C135.131 87.1166 135.235 87.6267 135.256 88.1435C135.231 88.7876 135.031 89.4128 134.679 89.9526C134.571 90.1065 134.443 90.2447 134.297 90.3633C134.132 90.4952 133.945 90.5977 133.744 90.6664C133.523 90.7499 133.287 90.7882 133.05 90.7788C132.894 90.7733 132.738 90.7553 132.585 90.7251L132.668 85.1269ZM146.207 93.0621C146.145 92.7815 146.099 92.4975 146.07 92.2114C146.016 91.9221 145.978 91.6299 145.958 91.3362C145.581 91.9049 145.079 92.3799 144.491 92.7248C143.921 93.0532 143.274 93.2221 142.617 93.2137C142.257 93.215 141.898 93.1589 141.556 93.0475C141.166 92.9413 140.812 92.7338 140.529 92.4461C140.222 92.1248 139.986 91.7436 139.834 91.3264C139.614 90.746 139.511 90.1279 139.531 89.5076C139.504 88.4946 139.852 87.5074 140.509 86.7354C140.8 86.4049 141.128 86.1096 141.487 85.8554C141.831 85.6037 142.188 85.3719 142.558 85.1611C142.916 84.9753 143.253 84.7797 143.576 84.6135C143.856 84.4779 144.121 84.3141 144.368 84.1246C144.741 83.8207 145.082 83.48 145.386 83.1076C145.67 82.7769 145.904 82.4062 146.08 82.0075C146.057 81.501 145.991 80.9973 145.885 80.5016C145.812 80.157 145.683 79.8267 145.503 79.5238C145.384 79.2994 145.188 79.1257 144.95 79.0348C144.713 78.943 144.461 78.8965 144.207 78.8979C143.839 78.8786 143.474 78.9762 143.165 79.1766C142.893 79.3374 142.657 79.552 142.47 79.8073C142.668 79.9415 142.843 80.1066 142.989 80.2963C143.108 80.4421 143.201 80.6075 143.263 80.7852C143.327 80.9511 143.365 81.1259 143.375 81.3035C143.392 81.5596 143.354 81.8164 143.264 82.0566C143.174 82.2969 143.033 82.5152 142.852 82.6969C142.492 83.0189 142.019 83.1859 141.536 83.1614C141.267 83.1663 141.001 83.1023 140.763 82.9756C140.531 82.8274 140.326 82.6405 140.157 82.4231C139.98 82.1696 139.841 81.8911 139.746 81.5968C139.656 81.2569 139.61 80.9069 139.609 80.5554C139.618 80.1426 139.702 79.7349 139.859 79.3526C140.039 78.9094 140.32 78.5144 140.68 78.1988C141.11 77.8077 141.607 77.4979 142.148 77.2845C142.831 77.0267 143.56 76.9071 144.29 76.9325C145.044 76.9068 145.792 77.0751 146.462 77.4214C147.037 77.7433 147.537 78.1832 147.929 78.7122C148.318 79.2802 148.607 79.9101 148.785 80.575C148.945 81.2974 149.026 82.0352 149.025 82.7751V88.4027C149.014 88.9623 149.034 89.5221 149.083 90.0797C149.137 90.6273 149.137 91.1211 149.196 91.5856C149.215 92.0214 149.27 92.4548 149.362 92.8812L146.207 93.0621ZM146.012 85.21C145.712 85.5729 145.372 85.9009 144.999 86.1878C144.745 86.3834 144.447 86.579 144.148 86.8185C143.838 87.0385 143.552 87.2891 143.292 87.5666C143.022 87.7938 142.787 88.0609 142.598 88.3587C142.423 88.6192 142.327 88.925 142.324 89.2387C142.322 89.5995 142.426 89.9528 142.622 90.2557C142.709 90.3967 142.831 90.512 142.978 90.5894C143.124 90.6668 143.288 90.7035 143.454 90.6957C143.769 90.7052 144.078 90.6069 144.329 90.417C144.606 90.2529 144.844 90.0291 145.024 89.7619C145.243 89.5005 145.428 89.2132 145.576 88.9063C145.699 88.6373 145.806 88.3635 145.904 88.0849L146.012 85.21Z" fill="black"/>
<path fill-rule="evenodd" clip-rule="evenodd" d="M40.1743 1.11951C43.2705 4.60066 42.9917 14.032 40.0374 17.6941L35.7918 17.5279V13.7191C35.7918 8.90321 33.2434 8.27738 33.8353 3.61303C34.2755 -0.102806 38.2472 -0.977984 40.145 1.11951" fill="#D6579A"/>
<path fill-rule="evenodd" clip-rule="evenodd" d="M31.067 34.9728C23.9061 33.6527 14.3682 38.4491 12.3921 43.8762C14.779 51.0487 17.3812 57.2532 19.7681 64.4111C24.3512 60.7148 29.5066 60.4214 31.067 62.1327V34.9728Z" fill="#FF3838"/>
<path fill-rule="evenodd" clip-rule="evenodd" d="M19.4452 65.8434C19.4452 65.8434 27.6283 59.7905 32.4169 64.2153C27.7066 61.1449 20.9713 65.9559 16.4127 69.6473C14.0257 62.4699 11.4236 56.2703 9.03662 49.1124C9.35683 47.6437 10.2333 46.3559 11.4823 45.5188L19.455 65.863" fill="#FF3838"/>
<path d="M28.3326 40.1602C24.3347 40.7616 20.5905 42.4879 17.5376 45.1374" stroke="white" stroke-width="2.83" stroke-linecap="round" stroke-linejoin="round"/>
<path d="M28.367 45.3232C25.1316 46.0277 22.0877 47.4256 19.4453 49.4204" stroke="white" stroke-width="2.83" stroke-linecap="round" stroke-linejoin="round"/>
<path fill-rule="evenodd" clip-rule="evenodd" d="M37.489 72.6884C37.3912 73.632 37.3423 76.5998 37.3423 76.5998C41.4118 78.0959 46.533 85.2684 41.5194 93.1157C52.8672 93.1157 63.2758 79.3475 55.7041 69.6473C52.2264 65.2469 49.8933 63.8046 48.6851 62.4943C45.1488 58.6562 47.3254 55.3511 49.2966 51.8846C50.5486 49.8887 51.3715 47.6542 51.7128 45.3232C52.1237 41.2211 49.9178 34.7526 44.2634 32.0293L44.3221 63.6237C44.3221 63.6237 37.5722 72.7421 37.5233 72.6639" fill="#D6579A"/>
<path fill-rule="evenodd" clip-rule="evenodd" d="M32.7251 84.7845C32.436 84.7579 32.1673 84.6243 31.9716 84.41C31.776 84.1956 31.6675 83.9159 31.6675 83.6257C31.6675 83.3356 31.776 83.0559 31.9716 82.8415C32.1673 82.6271 32.436 82.4936 32.7251 82.467C33.9468 82.4586 35.1321 82.8829 36.0707 83.6648C36.4785 83.9861 36.8189 84.3846 37.0724 84.8376C37.3259 85.2906 37.4874 85.7891 37.5479 86.3046C37.6083 86.8201 37.5664 87.3424 37.4245 87.8417C37.2827 88.341 37.0437 88.8074 36.7212 89.2142C36.5351 89.4442 36.3253 89.6539 36.0951 89.84C35.1566 90.6219 33.9713 91.0463 32.7495 91.0379C30.5814 91.0632 28.4738 90.324 26.7968 88.9501C25.3914 87.8332 24.487 86.2041 24.2825 84.421C24.078 82.6379 24.59 80.8465 25.7061 79.4405C26.0256 79.0356 26.3917 78.6696 26.7968 78.3502C28.4664 76.9812 30.5658 76.2453 32.7251 76.2723C34.1077 76.2248 35.4846 76.4724 36.764 76.9984C38.0435 77.5245 39.1961 78.317 40.1451 79.3232C42.0666 81.538 43.0891 84.3915 43.0114 87.322C42.9765 89.4416 42.2423 91.4904 40.9228 93.15C42.1402 93.1535 43.3552 93.0438 44.5522 92.8224C46.5087 82.9999 44.063 73.7788 33.1506 72.7765C24.9822 72.048 18.0757 76.9079 18.0757 84.1929C18.0728 85.72 18.3939 87.2304 19.0178 88.6244C19.6417 90.0183 20.5543 91.2642 21.6952 92.2797C24.2188 94.4638 27.4657 95.6299 30.8028 95.5506C35.4642 95.5506 40.6832 92.4949 40.6832 87.322C40.7589 84.9732 39.9588 82.68 38.4381 80.8878C37.7026 80.1193 36.8119 79.516 35.8252 79.1181C34.8385 78.7203 33.7784 78.5368 32.7153 78.58C31.0949 78.5539 29.5177 79.1031 28.2642 80.1299C27.7981 80.4891 27.4074 80.9365 27.1143 81.4467C26.8212 81.9568 26.6316 82.5197 26.5562 83.1031C26.4808 83.6866 26.5211 84.2791 26.6748 84.847C26.8286 85.4148 27.0928 85.9468 27.4523 86.4126C27.6863 86.7174 27.9593 86.9903 28.2642 87.2242C29.5178 88.252 31.0941 88.8043 32.7153 88.7839C33.3908 88.7949 34.0487 88.5682 34.574 88.1434C34.7798 87.9865 34.9466 87.7841 35.0614 87.5522C35.1763 87.3203 35.236 87.065 35.236 86.8062C35.236 86.5474 35.1763 86.2921 35.0614 86.0602C34.9466 85.8283 34.7798 85.6259 34.574 85.469C34.0452 85.0517 33.3889 84.829 32.7153 84.8383" fill="#18385D"/>
<path fill-rule="evenodd" clip-rule="evenodd" d="M47.6531 54.8233C44.5814 62.1572 50.6613 62.8124 54.2123 68.0243C56.6873 71.6864 68.128 69.2222 68.128 59.7566C68.128 53.7673 64.5427 47.333 58.2623 40.1262C60.346 51.0244 49.1597 51.2542 47.6531 54.794" fill="#2AABE3"/>
<path fill-rule="evenodd" clip-rule="evenodd" d="M27.9168 27.052C28.1059 27.2944 28.2208 27.5863 28.2477 27.8925C28.2746 28.1987 28.2124 28.5062 28.0684 28.7779C28.0249 28.9871 27.9362 29.1844 27.8085 29.3558C27.6807 29.5271 27.517 29.6686 27.3289 29.7701C27.1407 29.8716 26.9326 29.9308 26.7192 29.9436C26.5058 29.9563 26.2921 29.9223 26.0932 29.8438C25.8943 29.7654 25.715 29.6444 25.5677 29.4895C25.4205 29.3345 25.3089 29.1492 25.2408 28.9466C25.1727 28.744 25.1497 28.529 25.1735 28.3166C25.1972 28.1041 25.2671 27.8995 25.3782 27.7169C25.4075 27.6429 25.4418 27.571 25.481 27.5018C25.5902 27.2747 25.7495 27.0754 25.9469 26.9187C26.1443 26.7621 26.3746 26.6522 26.6206 26.5973L25.2022 22.7543L21.9348 24.0304L23.6076 28.553C23.7963 28.7954 23.9114 29.087 23.9392 29.393C23.9669 29.6989 23.9062 30.0064 23.7641 30.2789C23.719 30.4866 23.6293 30.6821 23.5012 30.8517C23.373 31.0214 23.2095 31.1611 23.022 31.2614C22.8344 31.3616 22.6273 31.4199 22.415 31.4322C22.2027 31.4445 21.9903 31.4105 21.7924 31.3326C21.5945 31.2547 21.416 31.1348 21.2691 30.981C21.1222 30.8273 21.0105 30.6436 20.9417 30.4424C20.8729 30.2413 20.8486 30.0276 20.8706 29.8161C20.8926 29.6047 20.9603 29.4006 21.069 29.2179C21.098 29.1445 21.134 29.0741 21.1766 29.0077C21.2844 28.7796 21.4432 28.5793 21.6409 28.4224C21.8385 28.2656 22.0696 28.1563 22.3163 28.1031L20.2815 22.6272C20.1788 22.3583 20.0125 22.725 20.2815 22.6272C20.7707 22.1383 25.4174 20.4172 25.4174 20.4172C25.6096 20.7787 25.7731 21.1547 25.9065 21.5418L27.9168 27.052Z" fill="#09A89E"/>
<path fill-rule="evenodd" clip-rule="evenodd" d="M53.2 33.8336C54.051 33.5744 55.2885 33.5549 55.7336 31.0076C56.1934 33.5549 57.4162 33.5744 58.2624 33.8336C56.3695 34.2345 56.0809 35.2221 55.7336 36.6644C55.3864 35.2221 55.1027 34.2198 53.2 33.8336Z" fill="#FF3838"/>
<path fill-rule="evenodd" clip-rule="evenodd" d="M47.4819 25.9129C48.0493 25.9814 48.783 26.2943 49.727 24.9351C49.3259 26.5632 50.0352 26.8908 50.4656 27.2721C49.2428 27.0081 48.8075 27.5166 48.2254 28.25C48.4162 27.3308 48.5091 26.6707 47.4819 25.9129Z" fill="#18385D"/>
<path d="M47.4819 25.9129C48.0493 25.9814 48.783 26.2943 49.727 24.9351C49.3259 26.5632 50.0352 26.8908 50.4656 27.2721C49.2428 27.0081 48.8075 27.5166 48.2254 28.25C48.4162 27.3308 48.5091 26.6707 47.4819 25.9129Z" stroke="#18385D" stroke-width="0.22" stroke-miterlimit="22.93"/>
<path fill-rule="evenodd" clip-rule="evenodd" d="M32.1382 66.8652H41.9941L37.543 72.7421L32.1382 66.8652Z" fill="#09A89E"/>
<path d="M46.5332 92.2066V82.9463H48.6209V91.2923C47.9462 91.6406 47.2487 91.9428 46.5332 92.1968" fill="#18385D"/>
<path d="M57.3917 64.9098C57.1147 64.9617 56.8285 64.9014 56.5959 64.7424C56.3634 64.5833 56.2036 64.3384 56.1517 64.0615C56.0998 63.7847 56.1601 63.4986 56.3192 63.2661C56.4784 63.0337 56.7234 62.874 57.0004 62.8221C60.3411 62.1816 62.8699 59.8445 63.1927 56.3683C63.2514 55.7913 63.6329 54.5886 64.2101 54.6424C64.4841 54.666 64.7376 54.797 64.9153 55.0068C65.0931 55.2165 65.1807 55.488 65.159 55.762C64.7237 60.6513 62.3172 63.9271 57.3965 64.8756" fill="white"/>
<path d="M54.6967 54.7596C54.9736 54.7078 55.2599 54.768 55.4924 54.9271C55.7249 55.0862 55.8847 55.3311 55.9366 55.6079C55.9885 55.8848 55.9282 56.1709 55.7691 56.4033C55.6099 56.6357 55.3649 56.7955 55.088 56.8473C54.4892 56.932 53.9327 57.2042 53.4983 57.6247C52.9982 58.2105 52.7105 58.9478 52.6815 59.7173C52.6735 59.8564 52.6377 59.9924 52.5761 60.1174C52.5146 60.2424 52.4286 60.3538 52.3233 60.445C52.2179 60.5361 52.0953 60.6053 51.9628 60.6482C51.8302 60.6912 51.6904 60.7072 51.5516 60.6952C51.4122 60.6853 51.2763 60.6479 51.1515 60.5852C51.0267 60.5224 50.9156 60.4355 50.8247 60.3296C50.7337 60.2237 50.6646 60.1007 50.6215 59.968C50.5783 59.8352 50.562 59.6951 50.5733 59.556C50.6278 58.2979 51.1189 57.0981 51.9624 56.1628C52.6997 55.4266 53.6489 54.9394 54.6771 54.7694" fill="white"/>
<path d="M61.4907 48.9656C61.7696 48.9773 62.0325 49.0993 62.2214 49.3046C62.4104 49.51 62.51 49.782 62.4983 50.0608C62.4866 50.3396 62.3646 50.6024 62.1592 50.7913C61.9537 50.9801 61.6816 51.0797 61.4027 51.068C61.362 51.0707 61.3211 51.0707 61.2804 51.068C60.6793 50.9802 60.0658 51.081 59.5244 51.3565C58.8669 51.7773 58.3759 52.4133 58.1353 53.1557C58.0391 53.4109 57.8475 53.6188 57.6008 53.7353C57.3542 53.8519 57.0719 53.8682 56.8135 53.7806C56.5552 53.693 56.341 53.5085 56.2161 53.266C56.0913 53.0236 56.0657 52.7421 56.1446 52.481C56.1572 52.4459 56.1719 52.4117 56.1886 52.3783C56.6038 51.1864 57.422 50.1766 58.5022 49.523C59.4177 49.036 60.4623 48.8463 61.4907 48.9803" fill="white"/>
<path d="M31.9521 34.7527V63.6091L38.5896 70.8599L37.4597 72.7373L29.8489 64.4158V34.7527H31.9521Z" fill="#09A89E"/>
<path d="M50.583 90.1433V82.9463H52.6707V88.4956C52.0156 89.0976 51.3179 89.6515 50.583 90.1531" fill="#18385D"/>
<path fill-rule="evenodd" clip-rule="evenodd" d="M9.5503 35.9701C10.1079 35.2709 11.1008 34.5766 10.0394 32.2053C11.859 34.0486 12.8813 33.3739 13.7226 33.1098C12.3872 34.4984 12.7052 35.486 13.2334 36.8746C12.1329 35.8967 11.3405 35.222 9.54541 35.9701" fill="#2AABE3"/>
<path fill-rule="evenodd" clip-rule="evenodd" d="M31.7806 3.27075C31.974 3.27075 32.163 3.3281 32.3239 3.43555C32.4847 3.543 32.61 3.69572 32.684 3.8744C32.758 4.05308 32.7774 4.24969 32.7397 4.43937C32.7019 4.62906 32.6088 4.80329 32.472 4.94005C32.3353 5.0768 32.161 5.16994 31.9714 5.20767C31.7817 5.2454 31.5851 5.22603 31.4064 5.15202C31.2277 5.07801 31.075 4.95268 30.9675 4.79187C30.8601 4.63106 30.8027 4.442 30.8027 4.2486C30.8027 3.98926 30.9058 3.74054 31.0891 3.55716C31.2725 3.37378 31.5212 3.27075 31.7806 3.27075Z" fill="#D6579A"/>
<path fill-rule="evenodd" clip-rule="evenodd" d="M32.7587 8.31152C33.01 8.33296 33.2432 8.4506 33.4097 8.6399C33.5763 8.8292 33.6633 9.07552 33.6526 9.32743C33.6418 9.57935 33.5342 9.81738 33.3522 9.99184C33.1701 10.1663 32.9277 10.2637 32.6756 10.2637C32.4235 10.2637 32.1811 10.1663 31.999 9.99184C31.817 9.81738 31.7094 9.57935 31.6986 9.32743C31.6879 9.07552 31.7749 8.8292 31.9415 8.6399C32.108 8.4506 32.3413 8.33296 32.5925 8.31152H32.7587Z" fill="#09A89E"/>
<path fill-rule="evenodd" clip-rule="evenodd" d="M34.241 13.0933C34.4344 13.0933 34.6235 13.1506 34.7843 13.2581C34.9451 13.3655 35.0704 13.5182 35.1445 13.6969C35.2185 13.8756 35.2378 14.0722 35.2001 14.2619C35.1624 14.4516 35.0692 14.6258 34.9325 14.7626C34.7957 14.8993 34.6215 14.9924 34.4318 15.0302C34.2421 15.0679 34.0455 15.0485 33.8668 14.9745C33.6881 14.9005 33.5354 14.7752 33.428 14.6144C33.3205 14.4536 33.2632 14.2645 33.2632 14.0711C33.2632 13.8118 33.3662 13.563 33.5496 13.3797C33.733 13.1963 33.9817 13.0933 34.241 13.0933Z" fill="#FF3838"/>
<path d="M36.7551 21.0627H35.8311V62.1472H36.7551V21.0627Z" fill="#D6579A"/>
<path d="M38.2615 21.0627H37.3374V62.1472H38.2615V21.0627Z" fill="#D6579A"/>
<path d="M39.7681 21.0627H38.844V62.1472H39.7681V21.0627Z" fill="#D6579A"/>
<path fill-rule="evenodd" clip-rule="evenodd" d="M4.91773 74.7174L5.69023 73.6026L3.98877 73.1528L4.91773 74.7174Z" fill="#18385D"/>
<path d="M8.87036 76.7122L9.61842 74.6685" stroke="white" stroke-width="0.71" stroke-miterlimit="22.93"/>
<path fill-rule="evenodd" clip-rule="evenodd" d="M3.55349 58.0256C3.62123 58.3206 3.59601 58.6293 3.48129 58.9095C3.36657 59.1896 3.16797 59.4273 2.91273 59.5902C2.5935 59.8279 2.19705 59.9381 1.80086 59.8992C1.40468 59.8604 1.03723 59.6752 0.770352 59.3799C0.554746 59.0452 0.478565 58.6396 0.558072 58.2495C0.637578 57.8595 0.866473 57.5159 1.19589 57.2922C1.39559 57.1392 1.62778 57.034 1.87456 56.9849C2.12134 56.9357 2.37612 56.9438 2.61925 57.0086C2.71219 56.2655 3.41164 51.6598 3.22088 50.8188L4.38011 50.9509C4.38011 50.9509 6.99205 51.3664 7.64259 53.4248C6.47358 52.5154 5.55891 53.063 4.31652 52.0754L3.55349 58.0256Z" fill="#18385D"/>
<path fill-rule="evenodd" clip-rule="evenodd" d="M0.784912 67.3444C1.12241 66.9141 1.76317 66.4839 1.08328 65.022C2.20338 66.1612 2.82946 65.7162 3.35283 65.5842C2.5311 66.4496 2.73164 67.051 3.04957 67.9017C2.35501 67.2906 1.88056 66.8848 0.784912 67.3444Z" fill="#D6579A"/>
<path fill-rule="evenodd" clip-rule="evenodd" d="M64.1614 70.64C65.0467 70.7524 66.1668 71.2316 67.6391 69.0999C67.0228 71.608 68.1282 72.1312 68.7885 72.713C66.8956 72.2974 66.2255 73.0895 65.3108 74.258C65.5798 72.7912 65.7266 71.7841 64.1614 70.64Z" fill="#09A89E"/>
<path fill-rule="evenodd" clip-rule="evenodd" d="M153.134 83.8798C154.136 83.2442 155.701 82.7846 155.388 79.3425C156.885 82.457 158.465 82.0561 159.649 82.0903C157.345 83.2784 157.33 84.6523 157.394 86.6275C156.416 84.9016 155.716 83.7233 153.134 83.8455" fill="#2AABE3"/>
</g>
<defs>
<clipPath id="clip0">
<rect width="166" height="100" fill="white" transform="translate(0.525879)"/>
</clipPath>
</defs>
</svg>
