<svg width="221" height="92" viewBox="0 0 221 92" fill="none" xmlns="http://www.w3.org/2000/svg">
<g clip-path="url(#clip0)">
<path d="M20.5621 0.672917C11.9371 0.914917 4.98312 1.99592 3.44012 3.68292C2.06712 5.16592 0.33512 6.41492 0.29112 8.43492C0.24012 10.3989 2.53112 10.5689 3.91412 10.5619C5.29712 10.5549 6.56412 10.4489 6.56112 9.63392C6.56112 8.47692 4.71412 8.71192 4.71412 7.55892C4.71412 6.22192 11.8391 5.91492 15.4011 5.89892C45.9491 5.81392 81.1291 27.0989 81.1781 45.1639C81.2241 59.1979 63.0691 62.3479 53.0581 62.3709C49.6056 62.3741 46.1611 62.0412 42.7731 61.3769C42.6261 56.8959 42.3641 47.5259 42.2441 41.5939C43.4041 41.5809 44.4761 41.5709 45.4041 41.5709C52.8261 41.5419 62.5391 44.1789 62.5591 45.9209C62.5591 47.4209 59.9771 48.4339 59.9801 49.8559C59.9901 50.9209 62.3721 50.7319 64.4441 50.8759C64.8101 50.9119 69.0031 48.5619 68.9901 44.8529C68.9771 39.9339 62.8651 34.1099 42.9721 34.1659C42.6911 34.1659 42.4071 34.1759 42.1121 34.1819C41.9241 28.6589 41.1061 19.9389 37.9911 19.9489C35.4031 19.9559 34.6481 29.5489 34.4351 34.8419C23.2741 36.5319 13.3481 41.1039 13.3611 45.6039C13.3611 49.2809 21.3391 58.5559 34.2551 64.2039C34.4741 68.3639 35.2681 71.2209 38.9421 71.2039C41.6091 71.1969 42.5211 69.2199 42.7991 67.1509C47.2123 68.2818 51.7514 68.8463 56.3071 68.8309C75.0411 68.7719 90.0841 58.7029 90.0351 44.8939C89.9801 26.3869 52.8621 -0.233083 20.5621 0.672917ZM15.5231 46.7489C15.5231 43.5199 25.2591 42.2979 34.2701 41.8489C34.2081 46.9049 34.1491 54.1639 34.1621 59.0239C23.0721 55.0889 15.5361 48.8239 15.5231 46.7489ZM100.755 54.8739C100.974 63.8289 100.105 64.1359 97.5681 64.1429C94.7411 64.1529 93.1681 62.8779 93.3911 52.1809C93.4911 47.4939 93.5711 34.6569 96.7381 34.6399C99.2091 34.6399 100.356 37.9119 100.755 54.8739ZM98.3821 29.7599C105.399 29.7439 116.553 21.7299 116.534 15.0789C116.527 12.0849 114.995 10.5519 111.161 10.0099C110.196 8.9869 109.034 8.16881 107.745 7.60442C106.457 7.04004 105.068 6.74092 103.661 6.72492C92.7421 6.76392 85.6611 15.5069 85.6661 20.2589C85.6684 22.3609 86.4221 24.3929 87.7911 25.9879C87.8471 29.7729 88.7551 30.7789 89.9911 30.7759C90.5673 30.7819 91.1325 30.618 91.6161 30.3046C92.0997 29.9912 92.4802 29.5423 92.7101 29.0139C94.5529 29.5478 96.466 29.799 98.3841 29.7589L98.3821 29.7599ZM99.1161 24.3889C97.7207 24.4091 96.3302 24.2196 94.9911 23.8269C98.0911 20.3069 105.577 13.6659 109.257 13.6529C109.621 13.6209 109.989 13.6661 110.334 13.7856C110.68 13.9051 110.997 14.0962 111.263 14.3464C111.53 14.5966 111.741 14.9002 111.883 15.2376C112.024 15.5749 112.093 15.9382 112.084 16.3039C112.091 20.7389 103.021 24.3799 99.1161 24.3899V24.3889ZM99.6261 12.5519C96.2088 14.5533 93.1392 17.0964 90.5371 20.0819C90.426 19.7441 90.3667 19.3915 90.3611 19.0359C90.3511 16.8989 93.4691 13.5849 99.6261 12.5519ZM110.326 42.8679C110.31 43.9759 115.601 44.2239 120.51 44.6299C127.066 45.1949 134.586 46.0909 134.61 54.0849C134.62 57.3759 131.81 63.7459 120.658 63.7749C109.358 63.8169 105.317 57.9749 105.31 55.4899C105.287 50.7149 109.833 49.4079 112.997 49.3899C115.997 49.3899 125.733 50.5629 125.737 52.9819C125.744 54.2989 123.305 55.6099 120.371 55.6229C117.437 55.6359 113.178 52.9889 111.106 52.9889C109.034 52.9889 108.125 54.3889 108.129 55.1889C108.129 56.0059 108.253 57.6269 113.773 57.6109C116.453 57.5949 129.461 56.1399 129.444 52.5219C129.444 50.9009 123.47 49.2999 118.564 48.7959C112.528 48.1819 103.452 49.6849 103.439 43.5239C103.406 34.4189 119.639 34.0359 122.839 34.0239C127.111 34.0079 134.68 33.9719 134.693 36.9389C134.7 41.9129 110.374 39.2199 110.328 42.8579L110.326 42.8679ZM163.244 51.4489C163.244 55.6089 160.692 62.0379 156.319 62.0489C152.296 62.0719 145.063 47.0489 143.746 47.0489C141.965 47.0489 144.262 63.4849 139.824 63.4979C136.837 63.5049 136.134 60.7889 136.124 56.7389C136.114 52.6889 138.141 36.2489 141.984 36.5189C145.723 36.7939 154.684 53.2589 155.72 52.9679C156.387 52.7779 156.462 51.2289 156.462 50.3679C156.446 46.1979 152.162 35.3279 152.148 32.2099C152.148 31.1709 152.315 30.1799 153.24 30.1799C156.907 30.1699 163.211 41.8739 163.24 51.4429L163.244 51.4489ZM186.891 58.8309C186.791 59.8249 179.591 65.4429 171.563 65.7109C166.487 65.8709 164.647 60.3179 164.638 57.8109C164.638 56.1829 166.181 52.2939 166.694 50.3949C166.857 49.7539 166.001 48.9499 166.05 48.4279C166.269 46.1759 169.498 45.9279 169.776 45.1209C170.229 43.9089 170.517 42.6416 170.632 41.3529C170.518 40.7249 165.971 39.8069 165.965 37.4929C165.958 35.0349 175.665 35.0809 183.143 34.2639C187.503 33.7799 191.029 37.8819 190.743 38.8719C190.568 39.3674 190.263 39.8064 189.859 40.1425C189.455 40.4786 188.968 40.6992 188.449 40.7809C187.749 40.9569 178.422 41.2159 177.02 41.8009C176.32 42.0919 175.896 44.9549 176.22 45.5139C176.566 46.0859 182.714 46.0959 183.691 46.1869C185.645 46.3469 186.24 50.6349 183.083 50.8079C181.975 50.8769 175.2 50.7689 174.112 51.1219C173.024 51.4749 171.942 56.5219 172.512 57.0409C173.082 57.5599 181.771 55.6159 183.32 55.6159C184.869 55.6159 187.062 57.3449 186.889 58.8349L186.891 58.8309ZM214.421 36.4699C210.055 36.7309 201.645 46.0749 196.737 52.3769C196.445 51.8048 196.275 51.1782 196.237 50.5369C196.23 47.8699 201.221 39.8959 202.146 37.9019C203.12 35.8169 202.025 33.0679 200.813 34.0549C198.466 35.9869 190.982 44.7549 191.005 52.9259C191.042 55.0996 191.569 57.2368 192.548 59.1779C190.868 64.6559 186.776 76.8459 186.914 84.2419C186.983 88.0589 190.829 91.8179 193.127 91.3079C194.003 91.1179 194.202 86.1149 195.353 82.7079C196.971 77.8219 199.562 68.9029 200.465 65.0859C200.889 65.1362 201.316 65.1612 201.743 65.1609C210.891 65.1279 221.026 55.3269 220.999 46.8749C220.972 38.4229 215.999 36.3839 214.427 36.4749L214.421 36.4699ZM203.9 57.3849C207.57 50.9729 212.927 42.4589 214.9 42.5009C216.286 42.5209 216.8 43.9059 216.812 46.0009C216.828 52.2729 209.285 57.4789 203.896 57.3879" fill="black"/>
</g>
<defs>
<clipPath id="clip0">
<rect width="220.711" height="90.7" fill="white" transform="translate(0.289062 0.649902)"/>
</clipPath>
</defs>
</svg>
