<svg xmlns="http://www.w3.org/2000/svg" xmlns:xlink="http://www.w3.org/1999/xlink" width="45" height="37" viewBox="0 0 45 37">
  <path fill="#279FD9" d="M.878 18.15s-1.183-.48-.803-1.57c.079-.225.237-.416.71-.746C2.98 14.304 41.427.485 41.427.485S42.513.12 43.154.363c.293.111.48.237.638.695.058.167.09.522.087.875-.004.254-.035.49-.058.86-.234 3.778-7.24 31.975-7.24 31.975s-.42 1.65-1.922 1.707c-.547.02-1.212-.091-2.007-.774-2.948-2.536-13.136-9.383-15.387-10.89-.126-.084-.163-.194-.185-.302-.031-.159.141-.355.141-.355S34.961 8.384 35.434 6.73c.036-.129-.101-.192-.287-.137-1.179.434-21.604 13.332-23.858 14.756-.132.084-.502.03-.502.03L.878 18.15z"/>
</svg>
