<svg xmlns="http://www.w3.org/2000/svg" width="50" height="53" viewBox="0 0 50 53">
    <g fill="#7360F2">
        <path d="M44.212 5.117C42.908 3.914 37.641.09 25.907.037c0 0-13.837-.834-20.583 5.354C1.57 9.146.25 14.64.11 21.455c-.139 6.813-.32 19.58 11.988 23.043h.012l-.008 5.283s-.078 2.138 1.33 2.574c1.703.53 2.703-1.096 4.33-2.848.892-.962 2.125-2.375 3.054-3.455 8.417.708 14.89-.911 15.626-1.15 1.7-.551 11.317-1.784 12.88-14.55 1.615-13.16-.78-21.484-5.109-25.235zm1.426 24.29c-1.32 10.66-9.12 11.33-10.558 11.792-.612.197-6.297 1.611-13.447 1.144 0 0-5.328 6.428-6.992 8.099-.26.261-.565.367-.77.315-.286-.07-.365-.41-.361-.906l.045-8.778s-.006 0 0 0C3.144 38.183 3.751 27.315 3.87 21.625c.118-5.69 1.187-10.353 4.363-13.488C13.937 2.97 25.69 3.741 25.69 3.741c9.926.044 14.682 3.033 15.785 4.034 3.662 3.135 5.528 10.638 4.163 21.63v.003z" transform="translate(0 .55)"/>
        <path d="M31.4 21.124c-.146-2.938-1.735-4.58-4.594-4.73-.366-.02-.678.262-.697.628-.02.366.262.678.628.697 2.17.114 3.225 1.204 3.337 3.471.018.366.33.648.696.63.366-.018.648-.33.63-.696z" transform="translate(0 .55)"/>
        <path d="M34.805 22.313c.056-2.591-.721-4.783-2.328-6.54-1.613-1.76-3.839-2.733-6.664-2.94-.366-.026-.684.248-.71.614-.027.366.248.684.613.71 2.504.184 4.412 1.017 5.782 2.513 1.37 1.497 2.03 3.356 1.98 5.614-.008.367.283.67.65.678.366.008.67-.283.677-.65z" transform="translate(0 .55)"/>
        <path d="M38.29 23.657c-.032-4.376-1.354-7.86-3.97-10.41-2.608-2.542-5.86-3.83-9.72-3.857-.367-.003-.666.292-.669.658-.002.367.293.666.66.669 3.522.024 6.444 1.182 8.802 3.48 2.348 2.288 3.54 5.431 3.57 9.47.004.366.303.661.67.658.366-.002.66-.302.658-.668zM26.903 30.045s.933.079 1.435-.54l.979-1.232c.472-.61 1.612-1 2.728-.378.837.477 1.649.995 2.434 1.553.74.545 2.257 1.811 2.262 1.811.723.61.89 1.506.397 2.45l-.003.02c-.542.94-1.23 1.787-2.039 2.51-.009.004-.009.01-.018.014-.702.587-1.392.92-2.07 1-.099.018-.2.024-.301.02-.3.002-.596-.044-.88-.136l-.022-.032c-1.044-.295-2.787-1.032-5.69-2.633-1.679-.915-3.278-1.972-4.78-3.157-.752-.594-1.47-1.23-2.149-1.907l-.072-.072-.073-.073-.072-.072-.073-.072c-.676-.68-1.312-1.398-1.906-2.15-1.186-1.501-2.242-3.1-3.158-4.78-1.6-2.902-2.338-4.644-2.632-5.689l-.032-.022c-.093-.284-.138-.581-.135-.88-.005-.101 0-.203.018-.302.085-.677.419-1.367 1.002-2.071.005-.009.01-.009.014-.018.723-.809 1.57-1.496 2.51-2.038.005 0 .014-.004.02-.004.944-.492 1.84-.326 2.45.393.004.005 1.268 1.522 1.81 2.263.558.785 1.077 1.598 1.554 2.435.622 1.116.232 2.258-.379 2.728l-1.232.98c-.622.502-.54 1.435-.54 1.435s1.825 6.906 8.643 8.646z" transform="translate(0 .55)"/>
    </g>
</svg>
