<svg xmlns="http://www.w3.org/2000/svg" xmlns:xlink="http://www.w3.org/1999/xlink" width="44" height="45" viewBox="0 0 44 45">
  <path fill="#24D366" d="M31.958 26.393c-.545-.273-3.226-1.592-3.726-1.774-.5-.182-.864-.273-1.227.273-.364.546-1.409 1.774-1.727 2.138-.318.364-.636.41-1.181.137-.546-.274-2.303-.85-4.386-2.707-1.621-1.446-2.715-3.232-3.034-3.778-.318-.546-.033-.84.24-1.113.245-.244.545-.637.818-.955.272-.319.363-.546.545-.91.182-.364.09-.682-.045-.955-.137-.273-1.227-2.957-1.682-4.05-.442-1.063-.892-.919-1.227-.935-.318-.016-.681-.02-1.045-.02-.363 0-.954.137-1.454.683s-1.909 1.865-1.909 4.55c0 2.683 1.954 5.276 2.227 5.64.273.364 3.845 5.872 9.316 8.234 1.3.562 2.317.898 3.108 1.149 1.307.415 2.496.357 3.435.216 1.048-.156 3.226-1.319 3.68-2.593.455-1.274.455-2.366.319-2.593-.136-.227-.5-.364-1.045-.637m-9.95 13.586H22c-3.255-.002-6.448-.876-9.233-2.529l-.662-.393-6.866 1.801 1.833-6.694-.432-.686c-1.816-2.888-2.775-6.226-2.773-9.654.004-10.001 8.141-18.138 18.147-18.138 4.845.002 9.4 1.891 12.825 5.32 3.424 3.428 5.31 7.986 5.308 12.833-.005 10.002-8.142 18.14-18.14 18.14M37.446 6.4c-4.12-4.125-9.6-6.398-15.438-6.4C9.978 0 .188 9.79.183 21.823c-.002 3.846 1.003 7.601 2.913 10.91L0 44.044l11.57-3.035c3.187 1.739 6.776 2.655 10.429 2.657h.009c12.028 0 21.82-9.791 21.824-21.825.003-5.831-2.265-11.314-6.386-15.44"/>
</svg>
