<svg width="25" height="24" viewBox="0 0 25 24" fill="none" xmlns="http://www.w3.org/2000/svg">
<path id="insta" fill-rule="evenodd" clip-rule="evenodd" d="M12.4215 0C9.18939 0 8.78411 0.0138139 7.51479 0.0722133C6.24802 0.13047 5.38294 0.333343 4.6259 0.629961C3.84331 0.936629 3.17962 1.34695 2.518 2.01406C1.85639 2.68123 1.44946 3.35044 1.14532 4.13954C0.851101 4.90283 0.649948 5.77516 0.592125 7.05242C0.534208 8.33234 0.520508 8.741 0.520508 12C0.520508 15.259 0.534208 15.6677 0.592125 16.9476C0.649948 18.2248 0.851101 19.0972 1.14532 19.8605C1.44946 20.6496 1.85639 21.3188 2.518 21.9859C3.17962 22.6531 3.84331 23.0634 4.6259 23.37C5.38294 23.6667 6.24802 23.8695 7.51479 23.9278C8.78411 23.9862 9.18939 24 12.4215 24C15.6537 24 16.0589 23.9862 17.3283 23.9278C18.5951 23.8695 19.4601 23.6667 20.2172 23.37C20.9998 23.0634 21.6635 22.6531 22.3251 21.9859C22.9867 21.3188 23.3936 20.6496 23.6978 19.8605C23.992 19.0972 24.1931 18.2248 24.2509 16.9476C24.3089 15.6677 24.3225 15.259 24.3225 12C24.3225 8.741 24.3089 8.33234 24.2509 7.05242C24.1931 5.77516 23.992 4.90283 23.6978 4.13954C23.3936 3.35044 22.9867 2.68123 22.3251 2.01406C21.6635 1.34695 20.9998 0.936629 20.2172 0.629961C19.4601 0.333343 18.5951 0.13047 17.3283 0.0722133C16.0589 0.0138139 15.6537 0 12.4215 0ZM12.4215 2.1622C15.5993 2.1622 15.9756 2.17444 17.2305 2.23218C18.3909 2.28553 19.021 2.48102 19.4404 2.64535C19.9959 2.86304 20.3924 3.12308 20.8088 3.54302C21.2252 3.96291 21.4832 4.36266 21.699 4.92279C21.862 5.34563 22.0559 5.98102 22.1088 7.15101C22.1661 8.41636 22.1782 8.79591 22.1782 12.0001C22.1782 15.2042 22.1661 15.5837 22.1088 16.8491C22.0559 18.0191 21.862 18.6544 21.699 19.0773C21.4832 19.6374 21.2252 20.0372 20.8088 20.4571C20.3924 20.877 19.9959 21.137 19.4404 21.3547C19.021 21.5191 18.3909 21.7146 17.2305 21.7679C15.9758 21.8256 15.5994 21.8379 12.4215 21.8379C9.24363 21.8379 8.86726 21.8256 7.61253 21.7679C6.4522 21.7146 5.822 21.5191 5.40264 21.3547C4.84718 21.137 4.45068 20.877 4.03425 20.4571C3.61782 20.0372 3.35989 19.6374 3.144 19.0773C2.98106 18.6544 2.78718 18.0191 2.73423 16.8491C2.67697 15.5837 2.66488 15.2042 2.66488 12.0001C2.66488 8.79591 2.67697 8.41636 2.73423 7.15101C2.78718 5.98102 2.98106 5.34563 3.144 4.92279C3.35989 4.36266 3.61782 3.96291 4.03425 3.54302C4.45068 3.12308 4.84718 2.86304 5.40264 2.64535C5.822 2.48102 6.4522 2.28553 7.61248 2.23218C8.86744 2.17444 9.24381 2.1622 12.4215 2.1622ZM12.4216 15.9999C10.2307 15.9999 8.45455 14.209 8.45455 11.9999C8.45455 9.79072 10.2307 7.99986 12.4216 7.99986C14.6125 7.99986 16.3886 9.79072 16.3886 11.9999C16.3886 14.209 14.6125 15.9999 12.4216 15.9999ZM12.4215 5.83787C9.04634 5.83787 6.31018 8.59674 6.31018 12.0001C6.31018 15.4033 9.04634 18.1622 12.4215 18.1622C15.7967 18.1622 18.5329 15.4033 18.5329 12.0001C18.5329 8.59674 15.7967 5.83787 12.4215 5.83787ZM18.7744 7.03445C19.5631 7.03445 20.2025 6.38977 20.2025 5.59447C20.2025 4.79917 19.5631 4.15449 18.7744 4.15449C17.9856 4.15449 17.3462 4.79917 17.3462 5.59447C17.3462 6.38977 17.9856 7.03445 18.7744 7.03445Z" fill="black" fill-opacity="0.53"/>
</svg>
