<svg width="34" height="22" viewBox="0 0 34 22" fill="none" xmlns="http://www.w3.org/2000/svg">
<path id="vk" fill-rule="evenodd" clip-rule="evenodd" d="M32.7085 2.12589C32.8534 1.3596 32.5345 0.930242 31.7806 0.930242H27.9826C27.1127 0.930242 26.7938 1.32875 26.5329 1.91121C26.5329 1.91121 24.4794 6.53723 21.9809 9.45226C21.1788 10.3946 20.771 10.6783 20.3283 10.6783C19.9712 10.6783 19.8064 10.3635 19.8064 9.51346V2.06458C19.8064 1.02241 19.6905 0.71582 18.8787 0.71582H12.7902C12.3262 0.71582 12.0362 1.00099 12.0362 1.39007C12.0362 2.37156 13.4569 2.59321 13.4569 5.25251V10.7396C13.4569 11.8432 13.3989 12.2723 12.906 12.2723C11.6014 12.2723 8.49911 7.52105 6.75957 2.12589C6.41159 1.02241 6.03467 0.71582 5.04884 0.71582H1.25083C0.699924 0.71582 0.293945 1.1142 0.293945 1.69653C0.293945 2.76942 1.4827 7.73547 6.15066 14.3875C9.28189 18.8628 13.3989 21.2845 17.11 21.2845C19.3715 21.2845 19.9224 20.8861 19.9224 19.8744V16.4412C19.9224 15.5829 20.2414 15.2151 20.7052 15.2151C21.2271 15.2151 22.1482 15.3923 24.3004 17.6367C26.8518 20.2117 27.0258 21.2845 28.4176 21.2845H32.6795C33.1144 21.2845 33.5202 21.0699 33.5202 20.3036C33.5202 19.2919 32.2735 17.4835 30.3599 15.3376C29.5772 14.2341 28.3015 13.0387 27.8955 12.487C27.3158 11.8432 27.4896 11.4751 27.8955 10.8009C27.8955 10.8009 32.2735 4.27167 32.7085 2.12589Z" fill="black" fill-opacity="0.53"/>
</svg>
